<svg id="Layer_1" data-name="Layer 1" xmlns="http://www.w3.org/2000/svg" viewBox="0 0 1400 1080"><defs><style>.cls-1,.cls-10,.cls-5{fill:none;}.cls-1{stroke:#000;}.cls-1,.cls-5{stroke-miterlimit:10;}.cls-2{fill:#f26dab;}.cls-3{fill:#14b5d9;}.cls-4{fill:#14c5d9;}.cls-5{stroke:#151614;}.cls-6{fill:#151614;}.cls-7{font-size:26px;}.cls-7,.cls-9{font-family:TimesNewRomanPS-ItalicMT, Times New Roman;font-style:italic;}.cls-8{letter-spacing:-0.02em;}.cls-9{font-size:32px;}.cls-11{fill:#81d929;}.cls-12{fill:#90f22e;}</style></defs><title>Artboard 1</title><path class="cls-1" d="M102.26,432.19a18.13,18.13,0,0,1,14.47-18.81c23.27-4.77,65.08-9,88.63-8.23,29.27,1,101.82-4,140-8.43a284.24,284.24,0,0,1,55.26-1.05C429.69,398,471.1,403.53,497,417c20.09,10.45,24.58,83.25,23.63,158.9-1.1,87.18-9.43,178.15-9.43,181.86,0,30-134.27,35.46-247.07,29.93-79.18-3.87-147.8-13.17-152-23.24-5.06-12.18-6.36-98.4-7.24-181.9C104.26,520.33,103.84,459.6,102.26,432.19Z"/><path class="cls-2" d="M291,492.06c-4,0-5.69,3.67-5.69,7.18,0,4.05,2.33,7.1,5.61,7.1s5.61-3,5.61-7.18C296.48,496,294.92,492.06,291,492.06Z"/><path class="cls-2" d="M265.18,496.07a5,5,0,0,0-4.85-3.9c-3.47,0-5.54,3.06-5.54,7.14,0,3.75,1.84,6.84,5.46,6.84a5.05,5.05,0,0,0,4.93-4,6.09,6.09,0,0,0,.15-1.45v-3.21A6.15,6.15,0,0,0,265.18,496.07Z"/><path class="cls-2" d="M156.23,445.32v99.55H342.86V445.32Zm49.51,63.5a13.29,13.29,0,0,1-6.57-1.64l.84-2.79a11.75,11.75,0,0,0,6,1.68c3.4,0,5.38-1.79,5.38-4.39,0-2.4-1.37-3.78-4.85-5.11-4.2-1.49-6.79-3.67-6.79-7.3,0-4,3.32-7,8.32-7a11.71,11.71,0,0,1,5.69,1.26l-.92,2.71a10.23,10.23,0,0,0-4.88-1.22c-3.52,0-4.85,2.09-4.85,3.85,0,2.41,1.56,3.59,5.11,5,4.35,1.68,6.57,3.78,6.57,7.56C214.75,505.39,211.81,508.82,205.74,508.82Zm22.18-16.3h-4.81v10c0,2.29.65,3.59,2.52,3.59a7.25,7.25,0,0,0,2-.23l.15,2.52a8.17,8.17,0,0,1-3,.46,4.67,4.67,0,0,1-3.63-1.41c-1-1-1.29-2.64-1.29-4.81V492.52H217V490h2.87v-4.43l3.28-.88V490h4.81Zm16.42,15.92-.2-3h-.07a7,7,0,0,1-6.11,3.44c-2.9,0-6.38-1.6-6.38-8.09V490h3.36v10.23c0,3.52,1.07,5.88,4.13,5.88A4.87,4.87,0,0,0,243.5,503a5,5,0,0,0,.3-1.72V490h3.36V503.4c0,1.91,0,3.59.15,5Zm21.49,0-.15-3.21h-.08a6.84,6.84,0,0,1-6.3,3.63c-4.47,0-7.9-3.78-7.9-9.39,0-6.15,3.78-9.93,8.28-9.93a6.18,6.18,0,0,1,5.58,2.83h.07v-11h3.36v22.34c0,1.64,0,3.51.15,4.77Zm11.79,0h-3.36V490h3.36Zm-1.75-21.61a2,2,0,0,1-2-2.06,2,2,0,0,1,2.1-2.1,2.08,2.08,0,1,1-.07,4.16Zm14.85,22c-5,0-8.86-3.67-8.86-9.51,0-6.18,4.05-9.81,9.16-9.81,5.31,0,8.9,3.86,8.9,9.51C299.92,505.88,295.18,508.86,290.72,508.86Z"/><path class="cls-3" d="M156.23,644.92v99.56H342.86V644.92Zm76.14,62.67H218.05V681.85h3.32V704.8h11Zm26,0-.64-11.31c-.2-3.58-.42-7.9-.39-11.11h-.11c-.88,3-1.95,6.23-3.25,9.78l-4.54,12.48H247l-4.16-12.25c-1.22-3.63-2.25-6.95-3-10h-.08c-.07,3.21-.26,7.53-.49,11.38l-.69,11h-3.17l1.8-25.74h4.23l4.4,12.45c1.06,3.17,1.94,6,2.59,8.66h.12c.64-2.59,1.56-5.42,2.71-8.66l4.58-12.45h4.24l1.6,25.74ZM272,708a13.4,13.4,0,0,1-6.57-1.64l.84-2.79a11.85,11.85,0,0,0,6,1.68c3.4,0,5.38-1.8,5.38-4.39,0-2.41-1.37-3.78-4.85-5.12-4.2-1.49-6.79-3.66-6.79-7.29,0-4,3.32-7,8.32-7a11.71,11.71,0,0,1,5.69,1.26l-.92,2.71a10.19,10.19,0,0,0-4.88-1.22c-3.52,0-4.85,2.1-4.85,3.86,0,2.4,1.56,3.59,5.11,5,4.36,1.68,6.57,3.78,6.57,7.56C281,704.53,278.1,708,272,708Z"/><path class="cls-4" d="M439.69,588.84c-2.16,0-3.11,2-3.28,3.48h6.24C442.68,591,442.1,588.84,439.69,588.84Z"/><path class="cls-4" d="M416.83,591.08c0-3.28-1.7-6.66-5.17-6.66s-5.32,3.31-5.3,6.85,1.9,6.61,5.2,6.61S416.83,594.82,416.83,591.08Z"/><path class="cls-4" d="M465.25,588.84c-2.16,0-3.11,2-3.28,3.48h6.24C468.24,591,467.65,588.84,465.25,588.84Z"/><path class="cls-4" d="M383,569v46.45h95.17V569Zm17.85,30.36-2.09-3.62c-.85-1.39-1.38-2.29-1.89-3.23h-.05c-.46.94-.93,1.82-1.78,3.25l-2,3.6h-2.43l5-8.29L390.86,583h2.46l2.16,3.84c.61,1.07,1.07,1.9,1.5,2.77h.08c.46-1,.87-1.72,1.48-2.77l2.23-3.84h2.43l-5,8,5.1,8.41Zm17.71,2.4c-2.21-.58-4.37-1.24-6.27-1.89a3.2,3.2,0,0,0-1-.25c-3.89-.14-7.22-3-7.22-8.28s3.21-8.62,7.63-8.62,7.34,3.45,7.34,8.28c0,4.2-1.95,6.9-4.67,7.85v.1c1.63.41,3.4.8,4.79,1Zm11.27-2.4-.12-1.92h-.05a4.42,4.42,0,0,1-3.88,2.18c-1.85,0-4.06-1-4.06-5.15v-6.87h2.14v6.51c0,2.24.68,3.74,2.62,3.74a3.09,3.09,0,0,0,2.82-1.94,3.21,3.21,0,0,0,.19-1.1v-7.21h2.14v8.55c0,1.22,0,2.28.1,3.21Zm14.8-5.49h-8.26a3.76,3.76,0,0,0,4,4.08,7.78,7.78,0,0,0,3.26-.61l.36,1.53a9.5,9.5,0,0,1-3.91.73c-3.62,0-5.78-2.38-5.78-5.93s2.09-6.34,5.51-6.34c3.84,0,4.86,3.38,4.86,5.54A9.24,9.24,0,0,1,444.65,593.85Zm10.76,5.49-.12-1.92h-.05a4.42,4.42,0,0,1-3.89,2.18c-1.84,0-4.05-1-4.05-5.15v-6.87h2.13v6.51c0,2.24.68,3.74,2.63,3.74a3.07,3.07,0,0,0,2.81-1.94,3,3,0,0,0,.2-1.1v-7.21h2.14v8.55c0,1.22,0,2.28.09,3.21Zm14.79-5.49h-8.26a3.77,3.77,0,0,0,4,4.08,7.69,7.69,0,0,0,3.25-.61l.37,1.53a9.56,9.56,0,0,1-3.92.73c-3.62,0-5.78-2.38-5.78-5.93s2.09-6.34,5.52-6.34c3.84,0,4.86,3.38,4.86,5.54A6.89,6.89,0,0,1,470.2,593.85Z"/><path class="cls-5" d="M529.13,512l180.44-5.37q8.67-.25,17.32.08l133.73,5.23"/><polygon class="cls-6" points="532.04 515.59 530.36 511.93 531.82 508.19 523.16 512.15 532.04 515.59"/><polygon class="cls-6" points="857.67 515.5 859.39 511.87 857.96 508.11 866.59 512.15 857.67 515.5"/><polyline class="cls-5" points="524.78 637.08 707.83 644.92 860.63 637.13"/><polygon class="cls-6" points="527.43 640.9 526.02 637.13 527.75 633.5 518.82 636.82 527.43 640.9"/><polygon class="cls-6" points="858.01 640.97 859.39 637.19 857.63 633.57 866.59 636.82 858.01 640.97"/><path class="cls-5" d="M1091.68,555.22l33.79-16a289.66,289.66,0,0,0,97.9-75.44l16.57-19.71"/><polygon class="cls-6" points="1095.8 557.37 1092.8 554.69 1092.64 550.67 1086.28 557.77 1095.8 557.37"/><polygon class="cls-6" points="1240.97 448.64 1239.15 445.05 1235.3 443.87 1243.78 439.54 1240.97 448.64"/><text class="cls-7" transform="translate(628.3 626.1)">work queue</text><text class="cls-7" transform="translate(633.85 544.87)">RESTful<tspan class="cls-8" x="86.67" y="0"> </tspan><tspan x="92.7" y="0">API</tspan></text><text class="cls-9" transform="translate(243.66 354.98)">OpenEDX</text><text class="cls-9" transform="translate(932.51 354.98)">System</text><path class="cls-3" d="M997.9,558.36a2.39,2.39,0,0,0-1.11.91,2.41,2.41,0,0,0-.39,1.34,2.39,2.39,0,0,0,.86,1.87,3.63,3.63,0,0,0,2.49.75,5.87,5.87,0,0,0,2.89-.71,4.38,4.38,0,0,0,1.86-1.95,6.8,6.8,0,0,0,.45-2.81v-1a20.35,20.35,0,0,1-4.59,1.06A10.67,10.67,0,0,0,997.9,558.36Z"/><path class="cls-3" d="M999.14,588.8a4.5,4.5,0,0,0-3.26,1.3,5.13,5.13,0,0,0-1.46,3.47h9.27a5.6,5.6,0,0,0-1.07-3.14A4.3,4.3,0,0,0,999.14,588.8Z"/><path class="cls-3" d="M980.76,588.82a3.89,3.89,0,0,0-3.13,1.53,7.55,7.55,0,0,0-1.26,4.83,7.17,7.17,0,0,0,1.35,4.76,4,4,0,0,0,3.17,1.58A4,4,0,0,0,984,600a6.92,6.92,0,0,0,1.29-4.6,7.85,7.85,0,0,0-1.31-5A4.06,4.06,0,0,0,980.76,588.82Z"/><path class="cls-3" d="M960.25,596.76a2.45,2.45,0,0,0-1.11.91,2.41,2.41,0,0,0-.39,1.34,2.38,2.38,0,0,0,.85,1.87,3.67,3.67,0,0,0,2.49.75,5.73,5.73,0,0,0,2.89-.71,4.3,4.3,0,0,0,1.86-1.94,6.89,6.89,0,0,0,.45-2.82v-1a20.35,20.35,0,0,1-4.59,1.06A10.55,10.55,0,0,0,960.25,596.76Z"/><path class="cls-3" d="M934.56,588.82a4.09,4.09,0,0,0-3.19,1.52,6.82,6.82,0,0,0-1.31,4.53q0,3.25,1.3,4.76a4.1,4.1,0,0,0,3.25,1.5,4.18,4.18,0,0,0,3.25-1.49,7,7,0,0,0,1.31-4.68,6.8,6.8,0,0,0-1.35-4.59A4.16,4.16,0,0,0,934.56,588.82Z"/><path class="cls-3" d="M986,413a69,69,0,0,0-18.05,0L867.59,426.35V739h218.69V426.35Zm26.21,135.47h9.55v2.32H1015v14.27h-2.81Zm-28.77,0H993v2.32h-6.73v14.27H983.4ZM963,562.7h1.24a3.13,3.13,0,0,0,1.25-.18.94.94,0,0,0,.5-.57,14.17,14.17,0,0,0,.12-2.55V548.47h13.06v16.59h-2.79V550.79H968.9v8.27a24.89,24.89,0,0,1-.18,3.81,2.8,2.8,0,0,1-1,1.61,3.79,3.79,0,0,1-2.44.69A21.89,21.89,0,0,1,963,565Zm-38,47.49h-2a27.86,27.86,0,0,1-3.94-6.87,21.59,21.59,0,0,1-.41-15.28,30,30,0,0,1,4.35-7.88h2q-1.89,3.26-2.5,4.64a26.41,26.41,0,0,0-1.5,4.5,26.06,26.06,0,0,0-.67,5.88A28.22,28.22,0,0,0,925,610.19Zm16.81-9a13.75,13.75,0,0,1-.78,5.49,5.82,5.82,0,0,1-2.5,2.56,8.75,8.75,0,0,1-4.22.93,7.94,7.94,0,0,1-4.79-1.33,4.52,4.52,0,0,1-1.77-4l2.74.41a2.58,2.58,0,0,0,.95,1.84,4.63,4.63,0,0,0,2.86.79,4.93,4.93,0,0,0,3-.79,3.84,3.84,0,0,0,1.44-2.18,17.57,17.57,0,0,0,.21-3.61,5.79,5.79,0,0,1-4.6,2.17A6.26,6.26,0,0,1,929,601a9.49,9.49,0,0,1-1.87-5.92,11,11,0,0,1,.86-4.38,6.55,6.55,0,0,1,6.33-4.2,5.92,5.92,0,0,1,4.84,2.38v-2h2.59Zm.52-36.15H918V542.15h3v20.21h7.61V542.15h3v20.21h7.61V542.15h3Zm14.42-13.69a4.72,4.72,0,0,0-3.2-1,5,5,0,0,0-2.93.69,4.28,4.28,0,0,0-1.4,2.46l-2.75-.37a6.68,6.68,0,0,1,1.24-2.85,5.35,5.35,0,0,1,2.48-1.67,11.09,11.09,0,0,1,3.77-.59,10.07,10.07,0,0,1,3.45.5,4.52,4.52,0,0,1,2,1.26,4.39,4.39,0,0,1,.88,1.91,16.41,16.41,0,0,1,.14,2.6v3.75a39.85,39.85,0,0,0,.18,5,6.17,6.17,0,0,0,.71,2h-2.94a5.93,5.93,0,0,1-.56-2,10.55,10.55,0,0,1-3,1.88,8.78,8.78,0,0,1-3.1.54,6,6,0,0,1-4.2-1.33,4.41,4.41,0,0,1-1.47-3.42,4.51,4.51,0,0,1,.55-2.22,4.63,4.63,0,0,1,1.45-1.62,6.83,6.83,0,0,1,2-.92,18.27,18.27,0,0,1,2.5-.42,25.9,25.9,0,0,0,5-1c0-.39,0-.63,0-.74A3.12,3.12,0,0,0,956.73,551.37ZM954.06,590a4,4,0,0,0-2.06-.61,2.67,2.67,0,0,0-1.66.55,3,3,0,0,0-1.05,1.54,11,11,0,0,0-.46,3.28v8.69H946V586.87h2.53v2.51a7,7,0,0,1,1.79-2.33,3.17,3.17,0,0,1,1.81-.56,5.44,5.44,0,0,1,2.89.91Zm14,13.45a5.93,5.93,0,0,1-.56-2.05,10.55,10.55,0,0,1-3,1.88,8.78,8.78,0,0,1-3.1.54,6,6,0,0,1-4.2-1.33,4.41,4.41,0,0,1-1.47-3.42,4.51,4.51,0,0,1,.55-2.22,4.66,4.66,0,0,1,1.46-1.62,6.66,6.66,0,0,1,2-.92,18.27,18.27,0,0,1,2.5-.42,25.9,25.9,0,0,0,5-1c0-.39,0-.63,0-.74a3.12,3.12,0,0,0-.8-2.42,4.72,4.72,0,0,0-3.2-.95,5,5,0,0,0-2.93.69A4.28,4.28,0,0,0,959,592l-2.75-.38a6.68,6.68,0,0,1,1.24-2.85,5.35,5.35,0,0,1,2.48-1.67,11.09,11.09,0,0,1,3.77-.59,10.07,10.07,0,0,1,3.45.5,4.46,4.46,0,0,1,2,1.26,4.39,4.39,0,0,1,.88,1.91,16.41,16.41,0,0,1,.14,2.6v3.75a39.85,39.85,0,0,0,.18,5,6.17,6.17,0,0,0,.71,2Zm19.78,0h-2.61v-2.09a5.16,5.16,0,0,1-4.64,2.46,6.51,6.51,0,0,1-3.65-1.09,7.28,7.28,0,0,1-2.57-3,10.56,10.56,0,0,1-.92-4.51,11.84,11.84,0,0,1,.83-4.51,6.53,6.53,0,0,1,2.48-3.1,6.66,6.66,0,0,1,3.71-1.08,5.54,5.54,0,0,1,2.67.63,5.79,5.79,0,0,1,1.91,1.65v-8.22h2.79Zm18.77-7.58H994.26a6.41,6.41,0,0,0,1.55,4.19,4.6,4.6,0,0,0,3.47,1.45,4.32,4.32,0,0,0,2.64-.81,5.35,5.35,0,0,0,1.73-2.59l2.91.36a7.13,7.13,0,0,1-2.55,3.95,8.64,8.64,0,0,1-10.52-.84,8.76,8.76,0,0,1-2.13-6.29,9.22,9.22,0,0,1,2.15-6.5,7.32,7.32,0,0,1,5.6-2.31,7.07,7.07,0,0,1,5.43,2.27,9,9,0,0,1,2.11,6.37C1006.65,595.3,1006.65,595.55,1006.64,595.88Zm-.89-30.82a5.93,5.93,0,0,1-.56-2,10.69,10.69,0,0,1-3,1.88,8.82,8.82,0,0,1-3.1.54,6,6,0,0,1-4.21-1.33,4.41,4.41,0,0,1-1.47-3.42,4.52,4.52,0,0,1,.56-2.22,4.63,4.63,0,0,1,1.45-1.62,6.83,6.83,0,0,1,2-.92,18.27,18.27,0,0,1,2.5-.42,25.9,25.9,0,0,0,5-1c0-.39,0-.63,0-.74a3.12,3.12,0,0,0-.8-2.42,4.74,4.74,0,0,0-3.2-1,5,5,0,0,0-2.93.69,4.28,4.28,0,0,0-1.4,2.46l-2.75-.37a6.8,6.8,0,0,1,1.23-2.85,5.38,5.38,0,0,1,2.49-1.67,11.07,11.07,0,0,1,3.76-.59,10.09,10.09,0,0,1,3.46.5,4.52,4.52,0,0,1,1.95,1.26,4.27,4.27,0,0,1,.87,1.91,15.25,15.25,0,0,1,.14,2.6v3.75a39.85,39.85,0,0,0,.18,5,6.2,6.2,0,0,0,.72,2Zm12.36,25a4,4,0,0,0-2.07-.61,2.67,2.67,0,0,0-1.65.55,3,3,0,0,0-1,1.54,11,11,0,0,0-.47,3.28v8.69h-2.81V586.87h2.53v2.51a6.91,6.91,0,0,1,1.79-2.33,3.17,3.17,0,0,1,1.81-.56,5.46,5.46,0,0,1,2.89.91Zm8.41,13.31a28.83,28.83,0,0,1-3.93,6.87h-2a28.22,28.22,0,0,0,4.67-15,26.14,26.14,0,0,0-.67-5.83,24.73,24.73,0,0,0-1.49-4.5,50.83,50.83,0,0,0-2.51-4.69h2a30,30,0,0,1,4.35,7.88,21.53,21.53,0,0,1-.42,15.28Zm9.74-38.26h-2.81v-6.69a16.28,16.28,0,0,1-4.84.81,5.9,5.9,0,0,1-3.34-1,4.83,4.83,0,0,1-2-2.35,8.85,8.85,0,0,1-.52-3.06v-4.34h2.82v3.14a12.8,12.8,0,0,0,.24,2.94,3,3,0,0,0,1.16,1.6,3.84,3.84,0,0,0,2.32.67,13.78,13.78,0,0,0,4.12-.84v-7.51h2.81Z"/><path class="cls-3" d="M950.47,558.36a2.39,2.39,0,0,0-1.11.91,2.41,2.41,0,0,0-.39,1.34,2.38,2.38,0,0,0,.85,1.87,3.67,3.67,0,0,0,2.49.75,5.84,5.84,0,0,0,2.89-.71,4.38,4.38,0,0,0,1.86-1.95,6.8,6.8,0,0,0,.45-2.81v-1a20.35,20.35,0,0,1-4.59,1.06A10.55,10.55,0,0,0,950.47,558.36Z"/><path class="cls-10" d="M1242.87,368a7.58,7.58,0,0,0-3.45-2.11,16.54,16.54,0,0,0-4.36-.44h-8.45v22.91h8.7a13.69,13.69,0,0,0,4.09-.49,8,8,0,0,0,3.25-1.83,10.12,10.12,0,0,0,2.46-4,15.06,15.06,0,0,0,.7-4.88,16.89,16.89,0,0,0-.75-5.41A10,10,0,0,0,1242.87,368Zm-2.31,13.11a4.9,4.9,0,0,1-1.21,2.22,4.42,4.42,0,0,1-1.87.95,12.87,12.87,0,0,1-2.79.22h-3.46V369.32h2.08a21.87,21.87,0,0,1,3.8.21,4.44,4.44,0,0,1,2.14,1.08,5.22,5.22,0,0,1,1.31,2.22,13.79,13.79,0,0,1,.47,4.08A15,15,0,0,1,1240.56,381.1Z"/><path class="cls-10" d="M1264.59,376.17a5.24,5.24,0,0,0,2.35-2,5.33,5.33,0,0,0,.87-3,5.15,5.15,0,0,0-.7-2.68,5.74,5.74,0,0,0-4.15-2.86,26.5,26.5,0,0,0-4.06-.23h-9.15v22.91h7.79c3,0,4.81-.08,5.58-.16a6.44,6.44,0,0,0,3.1-1.09,6.07,6.07,0,0,0,2-2.36,6.82,6.82,0,0,0,.73-3,5.53,5.53,0,0,0-1.13-3.46A6,6,0,0,0,1264.59,376.17Zm-10.22-6.92H1257c2.18,0,3.49,0,4,.08a2.6,2.6,0,0,1,1.74.81,2.75,2.75,0,0,1-.09,3.51,3,3,0,0,1-1.87.82c-.43,0-1.55.08-3.36.08h-3Zm9.14,14.18a2.92,2.92,0,0,1-1.68.92,21.63,21.63,0,0,1-3.18.14h-4.28v-6.13h3.74a15.63,15.63,0,0,1,4.1.33,2.81,2.81,0,0,1,1.44,1.05,2.94,2.94,0,0,1,.5,1.75A2.8,2.8,0,0,1,1263.51,383.43Z"/><path class="cls-11" d="M1260.76,374.47a3,3,0,0,0,1.87-.82,2.75,2.75,0,0,0,.09-3.51,2.6,2.6,0,0,0-1.74-.81c-.46-.05-1.77-.08-4-.08h-2.66v5.3h3C1259.21,374.55,1260.33,374.52,1260.76,374.47Z"/><path class="cls-11" d="M1239.25,370.61a4.44,4.44,0,0,0-2.14-1.08,21.87,21.87,0,0,0-3.8-.21h-2.08v15.17h3.46a12.87,12.87,0,0,0,2.79-.22,4.42,4.42,0,0,0,1.87-.95,4.9,4.9,0,0,0,1.21-2.22,15,15,0,0,0,.47-4.19,13.79,13.79,0,0,0-.47-4.08A5.22,5.22,0,0,0,1239.25,370.61Z"/><path class="cls-11" d="M1247.77,340.38c-27.61,0-50-11.19-50-25v97c0,13.81,22.39,25,50,25s50-11.19,50-25v-97C1297.77,329.19,1275.39,340.38,1247.77,340.38ZM1245.11,382a10.12,10.12,0,0,1-2.46,4,8,8,0,0,1-3.25,1.83,13.69,13.69,0,0,1-4.09.49h-8.7V365.44h8.45a16.54,16.54,0,0,1,4.36.44,7.58,7.58,0,0,1,3.45,2.11,10,10,0,0,1,2.19,3.71,16.89,16.89,0,0,1,.75,5.41A15.06,15.06,0,0,1,1245.11,382Zm23.1,2.75a6.07,6.07,0,0,1-2,2.36,6.44,6.44,0,0,1-3.1,1.09c-.77.08-2.63.14-5.58.16h-7.79V365.44h9.15a26.5,26.5,0,0,1,4.06.23,5.74,5.74,0,0,1,4.15,2.86,5.15,5.15,0,0,1,.7,2.68,5.33,5.33,0,0,1-.87,3,5.24,5.24,0,0,1-2.35,2,6,6,0,0,1,3.22,2.08,5.53,5.53,0,0,1,1.13,3.46A6.82,6.82,0,0,1,1268.21,384.74Z"/><path class="cls-11" d="M1262.21,378.69a15.63,15.63,0,0,0-4.1-.33h-3.74v6.13h4.28a21.63,21.63,0,0,0,3.18-.14,2.92,2.92,0,0,0,1.68-.92,2.8,2.8,0,0,0,.64-1.94,2.94,2.94,0,0,0-.5-1.75A2.81,2.81,0,0,0,1262.21,378.69Z"/><ellipse class="cls-3" cx="1247.77" cy="315.38" rx="50" ry="25"/><ellipse class="cls-12" cx="1247.77" cy="315.38" rx="50" ry="25"/></svg>