<svg xmlns="http://www.w3.org/2000/svg" viewBox="0 0 1187.78 401.88"><defs><style>.cls-1,.cls-35,.cls-36,.cls-5{fill:none;stroke-miterlimit:10;}.cls-1,.cls-35{stroke:#000;}.cls-2{fill:#f26dab;}.cls-3{fill:#14b5d9;}.cls-4{fill:#14c5d9;}.cls-36,.cls-5{stroke:#151614;}.cls-6{fill:#151614;}.cls-7,.cls-8{font-size:25.1px;}.cls-7{font-family:TimesNewRomanPS-ItalicMT, Times New Roman;}.cls-12,.cls-7{font-style:italic;}.cls-20,.cls-41,.cls-46,.cls-52,.cls-57,.cls-8{font-family:TimesNewRomanPSMT, Times New Roman;}.cls-9{letter-spacing:-0.02em;}.cls-10{letter-spacing:-0.06em;}.cls-11,.cls-12{font-size:9.41px;}.cls-11,.cls-15,.cls-16,.cls-17{font-family:ArialMT, Arial;}.cls-12{font-family:Arial-ItalicMT, Arial;}.cls-13{letter-spacing:-0.02em;}.cls-14{letter-spacing:0em;}.cls-15,.cls-16,.cls-17{font-style:normal;}.cls-15{letter-spacing:0.01em;}.cls-16,.cls-19{letter-spacing:-0.02em;}.cls-18{letter-spacing:-0.01em;}.cls-20,.cls-57{font-size:17.25px;}.cls-21{letter-spacing:-0.02em;}.cls-22{letter-spacing:0.01em;}.cls-23{letter-spacing:0.02em;}.cls-24{letter-spacing:-0.04em;}.cls-25{letter-spacing:-0.02em;}.cls-26{letter-spacing:0.01em;}.cls-27{letter-spacing:0.01em;}.cls-28{letter-spacing:0em;}.cls-29{letter-spacing:-0.03em;}.cls-30{letter-spacing:-0.01em;}.cls-31{letter-spacing:0.01em;}.cls-32{letter-spacing:-0.03em;}.cls-33{letter-spacing:0em;}.cls-34{letter-spacing:0.01em;}.cls-35,.cls-36{stroke-width:0.5px;}.cls-37,.cls-57{letter-spacing:-0.01em;}.cls-38{letter-spacing:-0.04em;}.cls-39{letter-spacing:-0.02em;}.cls-40{letter-spacing:0em;}.cls-41{font-size:13.25px;}.cls-42{letter-spacing:-0.02em;}.cls-43{letter-spacing:0.01em;}.cls-44{letter-spacing:0.02em;}.cls-45{letter-spacing:-0.04em;}.cls-46{font-size:11.25px;}.cls-47{letter-spacing:-0.01em;}.cls-48{letter-spacing:0em;}.cls-49{letter-spacing:-0.01em;}.cls-50{letter-spacing:0.01em;}.cls-51{letter-spacing:-0.04em;}.cls-52{font-size:9.25px;}.cls-53{letter-spacing:-0.03em;}.cls-54{letter-spacing:0em;}.cls-55{letter-spacing:-0.02em;}.cls-56{letter-spacing:-0.04em;}.cls-58{letter-spacing:-0.05em;}.cls-59{letter-spacing:-0.05em;}.cls-60{letter-spacing:-0.03em;}</style></defs><title>Asset 3</title><g id="Layer_2" data-name="Layer 2"><g id="Layer_1-2" data-name="Layer 1"><path class="cls-1" d="M163.93,81.4a14.23,14.23,0,0,1,11.35-14.75c18.25-3.74,51-7.07,69.51-6.45,23,.77,79.85-3.12,109.81-6.61a221.82,221.82,0,0,1,43.34-.82c22.79,1.8,55.26,6.16,75.58,16.74,15.75,8.2,19.27,65.29,18.53,124.62-.87,68.37-7.4,139.72-7.4,142.63,0,23.51-105.3,27.81-193.77,23.47-62.1-3-115.91-10.33-119.19-18.22-4-9.56-5-77.18-5.67-142.66C165.5,150.53,165.17,102.9,163.93,81.4Z"/><path class="cls-2" d="M311.91,128.36c-3.11,0-4.46,2.88-4.46,5.63,0,3.17,1.83,5.57,4.4,5.57s4.41-2.37,4.41-5.63C316.26,131.48,315,128.36,311.91,128.36Z"/><path class="cls-2" d="M291.71,131.51a3.88,3.88,0,0,0-3.81-3.06c-2.72,0-4.34,2.4-4.34,5.6,0,2.93,1.44,5.36,4.28,5.36a4,4,0,0,0,3.87-3.14,4.59,4.59,0,0,0,.12-1.14v-2.52A4.52,4.52,0,0,0,291.71,131.51Z"/><path class="cls-2" d="M206.26,91.7v78.08H352.63V91.7Zm38.83,49.81a10.41,10.41,0,0,1-5.15-1.29l.66-2.19a9.21,9.21,0,0,0,4.67,1.32c2.66,0,4.22-1.41,4.22-3.44s-1.08-3-3.8-4c-3.3-1.16-5.33-2.87-5.33-5.71,0-3.15,2.6-5.48,6.53-5.48a9.19,9.19,0,0,1,4.46,1l-.72,2.13a8,8,0,0,0-3.83-1c-2.76,0-3.81,1.65-3.81,3,0,1.88,1.23,2.81,4,3.89,3.41,1.32,5.15,3,5.15,5.93S249.85,141.51,245.09,141.51Zm17.4-12.79h-3.78v7.82c0,1.79.51,2.81,2,2.81a5.87,5.87,0,0,0,1.53-.18l.12,2a6.46,6.46,0,0,1-2.34.36,3.62,3.62,0,0,1-2.84-1.11c-.75-.78-1-2.07-1-3.77v-7.91h-2.25v-2h2.25v-3.47l2.57-.69v4.16h3.78Zm12.87,12.49-.15-2.37h-.06a5.46,5.46,0,0,1-4.79,2.7c-2.28,0-5-1.26-5-6.35v-8.48H268v8c0,2.75.84,4.61,3.24,4.61a3.81,3.81,0,0,0,3.47-2.4,3.76,3.76,0,0,0,.24-1.34v-8.9h2.64v10.54c0,1.5,0,2.82.12,4Zm16.86,0-.12-2.52H292a5.37,5.37,0,0,1-4.94,2.85c-3.51,0-6.2-3-6.2-7.37,0-4.82,3-7.79,6.49-7.79a4.85,4.85,0,0,1,4.38,2.22h.06V120h2.63v17.51c0,1.29,0,2.76.12,3.75Zm9.25,0h-2.64v-14.5h2.64Zm-1.38-17a1.57,1.57,0,0,1-1.59-1.62,1.61,1.61,0,0,1,1.65-1.65,1.64,1.64,0,1,1-.06,3.27Zm11.65,17.28c-3.93,0-6.95-2.88-6.95-7.46,0-4.85,3.17-7.7,7.18-7.7,4.17,0,7,3,7,7.46C319,139.2,315.24,141.54,311.74,141.54Z"/><path class="cls-3" d="M206.26,248.25v78.07H352.63V248.25ZM266,297.39H254.75V277.21h2.6v18H266Zm20.42,0-.51-8.86c-.15-2.82-.32-6.2-.29-8.72h-.1c-.68,2.37-1.52,4.89-2.54,7.67l-3.56,9.79h-2l-3.26-9.61c-1-2.85-1.77-5.45-2.34-7.85h-.06c-.06,2.52-.21,5.9-.39,8.93l-.54,8.65h-2.48l1.41-20.18h3.32l3.44,9.76c.84,2.49,1.53,4.7,2,6.8h.09c.51-2,1.23-4.25,2.12-6.8l3.6-9.76h3.32l1.26,20.18Zm10.69.3a10.41,10.41,0,0,1-5.15-1.29l.66-2.18a9.21,9.21,0,0,0,4.67,1.31c2.66,0,4.22-1.4,4.22-3.44,0-1.89-1.08-3-3.8-4-3.3-1.17-5.33-2.88-5.33-5.72,0-3.15,2.6-5.48,6.53-5.48a9.17,9.17,0,0,1,4.46,1l-.72,2.12a8.06,8.06,0,0,0-3.83-.95c-2.76,0-3.81,1.64-3.81,3,0,1.89,1.23,2.81,4,3.89,3.41,1.32,5.15,3,5.15,5.93C304.15,295,301.84,297.69,297.08,297.69Z"/><path class="cls-4" d="M428.57,204.27A2.78,2.78,0,0,0,426,207h4.9C430.91,205.92,430.46,204.27,428.57,204.27Z"/><path class="cls-4" d="M410.64,206c0-2.57-1.33-5.22-4.06-5.22s-4.17,2.59-4.15,5.37,1.49,5.18,4.08,5.18S410.64,209,410.64,206Z"/><path class="cls-4" d="M448.61,204.27A2.78,2.78,0,0,0,446,207h4.9A2.38,2.38,0,0,0,448.61,204.27Z"/><path class="cls-4" d="M384.12,188.69v36.43h74.65V188.69Zm14,23.81-1.64-2.84c-.67-1.09-1.09-1.79-1.49-2.54h0c-.36.75-.72,1.43-1.39,2.56L392,212.5h-1.91l3.93-6.5-3.77-6.35h1.92l1.7,3c.47.84.83,1.49,1.18,2.18h.05c.37-.77.69-1.36,1.17-2.18l1.75-3H400l-3.9,6.25,4,6.6ZM412,214.38c-1.73-.46-3.42-1-4.91-1.48a2.37,2.37,0,0,0-.78-.2c-3.05-.11-5.66-2.36-5.66-6.49s2.51-6.77,6-6.77,5.76,2.71,5.76,6.5c0,3.3-1.53,5.41-3.66,6.16v.07c1.27.33,2.66.63,3.75.82Zm8.84-1.88-.09-1.51h0a3.48,3.48,0,0,1-3.05,1.71c-1.44,0-3.18-.8-3.18-4v-5.4h1.68v5.11c0,1.75.53,2.93,2.06,2.93a2.44,2.44,0,0,0,2.21-1.52,2.58,2.58,0,0,0,.15-.86v-5.66h1.67V210c0,1,0,1.79.08,2.52Zm11.61-4.31H426a3,3,0,0,0,3.16,3.2,6,6,0,0,0,2.56-.48l.28,1.2a7.39,7.39,0,0,1-3.07.58,4.28,4.28,0,0,1-4.53-4.65c0-2.78,1.64-5,4.32-5,3,0,3.81,2.65,3.81,4.35A6.44,6.44,0,0,1,432.46,208.19Zm8.44,4.31-.1-1.51h0a3.48,3.48,0,0,1-3,1.71c-1.45,0-3.19-.8-3.19-4v-5.4h1.68v5.11c0,1.75.53,2.93,2.06,2.93a2.44,2.44,0,0,0,2.21-1.52,2.58,2.58,0,0,0,.15-.86v-5.66h1.68V210c0,1,0,1.79.07,2.52Zm11.6-4.31H446a3,3,0,0,0,3.17,3.2,6,6,0,0,0,2.55-.48l.29,1.2a7.46,7.46,0,0,1-3.07.58,4.29,4.29,0,0,1-4.54-4.65c0-2.78,1.64-5,4.33-5,3,0,3.81,2.65,3.81,4.35A6,6,0,0,1,452.5,208.19Z"/><path class="cls-5" d="M363.84,280.61l21-16.3a116,116,0,0,0,17-16.17l16.6-19.39"/><polygon class="cls-6" points="368.32 281.81 364.81 279.85 363.79 275.96 359.12 284.27 368.32 281.81"/><path class="cls-5" d="M304.15,245.68l30.52-27.31a115.18,115.18,0,0,1,19.8-12.56L372,197.06"/><polygon class="cls-6" points="371.1 201.63 370.85 197.62 367.79 195.01 377.3 194.39 371.1 201.63"/><text class="cls-7" transform="translate(274.83 20.86)">OpenEDX</text><text class="cls-8" transform="translate(591.58 91.7)">RES<tspan class="cls-9" x="46.03" y="0">T</tspan><tspan class="cls-10" x="60.9" y="0"> </tspan><tspan x="65.79" y="0">API</tspan></text><text class="cls-7" transform="translate(874.68 20.86)">System</text><path class="cls-3" d="M926,180.35a2,2,0,0,0-.87.72,1.94,1.94,0,0,0,.36,2.52,2.86,2.86,0,0,0,1.95.59,4.57,4.57,0,0,0,2.27-.56,3.45,3.45,0,0,0,1.46-1.52,5.49,5.49,0,0,0,.35-2.21v-.81a15.54,15.54,0,0,1-3.6.83A8.32,8.32,0,0,0,926,180.35Z"/><path class="cls-3" d="M926.93,204.23a3.49,3.49,0,0,0-2.55,1,4.07,4.07,0,0,0-1.15,2.72h7.27a4.49,4.49,0,0,0-.83-2.46A3.41,3.41,0,0,0,926.93,204.23Z"/><path class="cls-3" d="M912.52,204.25a3,3,0,0,0-2.45,1.2,5.9,5.9,0,0,0-1,3.78,5.66,5.66,0,0,0,1,3.74,3.19,3.19,0,0,0,2.49,1.24,3.13,3.13,0,0,0,2.46-1.18,5.49,5.49,0,0,0,1-3.61,6.09,6.09,0,0,0-1-3.92A3.15,3.15,0,0,0,912.52,204.25Z"/><path class="cls-3" d="M896.43,210.47a2,2,0,0,0-.87.72,2,2,0,0,0,.36,2.52,2.9,2.9,0,0,0,2,.58,4.6,4.6,0,0,0,2.27-.55,3.4,3.4,0,0,0,1.45-1.53A5.25,5.25,0,0,0,902,210v-.81a16.66,16.66,0,0,1-3.6.83A8.58,8.58,0,0,0,896.43,210.47Z"/><path class="cls-3" d="M876.29,204.25a3.16,3.16,0,0,0-2.5,1.19,5.3,5.3,0,0,0-1,3.55,5.65,5.65,0,0,0,1,3.74,3.21,3.21,0,0,0,2.54,1.17,3.24,3.24,0,0,0,2.55-1.17,5.44,5.44,0,0,0,1-3.67,5.32,5.32,0,0,0-1.06-3.6A3.26,3.26,0,0,0,876.29,204.25Z"/><path class="cls-3" d="M916.6,66.36a53.28,53.28,0,0,0-14.16,0L823.76,76.83V322.06H995.28V76.83ZM937.15,172.6h7.49v1.82h-5.28v11.19h-2.21Zm-22.56,0h7.49v1.82H916.8v11.19h-2.21Zm-16,11.16h1a2.57,2.57,0,0,0,1-.14.73.73,0,0,0,.39-.45,11,11,0,0,0,.1-2V172.6h10.24v13h-2.19V174.42h-5.85v6.49a18.54,18.54,0,0,1-.15,3,2.13,2.13,0,0,1-.8,1.26,3,3,0,0,1-1.92.54c-.51,0-1.1,0-1.77-.1ZM868.78,221h-1.59a22.26,22.26,0,0,1-3.08-5.39,16.83,16.83,0,0,1-.32-12,23.54,23.54,0,0,1,3.4-6.17h1.59c-1,1.7-1.65,2.91-2,3.64a19.75,19.75,0,0,0-1.17,3.53,20.49,20.49,0,0,0-.53,4.6A22.07,22.07,0,0,0,868.78,221ZM882,214a10.69,10.69,0,0,1-.62,4.31,4.45,4.45,0,0,1-2,2,6.77,6.77,0,0,1-3.3.74,6.2,6.2,0,0,1-3.76-1,3.54,3.54,0,0,1-1.39-3.15l2.15.32a2.05,2.05,0,0,0,.74,1.44,3.69,3.69,0,0,0,2.25.61,3.9,3.9,0,0,0,2.36-.61,3,3,0,0,0,1.13-1.71,14.38,14.38,0,0,0,.16-2.84,4.54,4.54,0,0,1-3.6,1.71,4.93,4.93,0,0,1-4.16-1.94,7.45,7.45,0,0,1-1.47-4.64,8.83,8.83,0,0,1,.67-3.44,5.41,5.41,0,0,1,2-2.43,5.29,5.29,0,0,1,3-.86,4.68,4.68,0,0,1,3.8,1.86v-1.57h2Zm.41-28.35H863.3v-18h2.38v15.84h6V167.65H874v15.84h6V167.65h2.38Zm11.31-10.73a3.72,3.72,0,0,0-2.52-.75,3.83,3.83,0,0,0-2.29.55,3.29,3.29,0,0,0-1.1,1.93l-2.16-.3a5.43,5.43,0,0,1,1-2.24,4.34,4.34,0,0,1,1.95-1.31,8.83,8.83,0,0,1,3-.46,7.6,7.6,0,0,1,2.71.4,3.58,3.58,0,0,1,1.53,1,3.47,3.47,0,0,1,.69,1.5,13,13,0,0,1,.11,2v2.94a32.1,32.1,0,0,0,.14,3.89,4.8,4.8,0,0,0,.56,1.56h-2.31a4.76,4.76,0,0,1-.44-1.6,8.25,8.25,0,0,1-2.36,1.47,6.9,6.9,0,0,1-2.43.43,4.74,4.74,0,0,1-3.3-1,3.49,3.49,0,0,1-1.15-2.68,3.62,3.62,0,0,1,1.58-3,5.57,5.57,0,0,1,1.58-.73,17.82,17.82,0,0,1,2-.33,19.49,19.49,0,0,0,3.93-.76c0-.3,0-.49,0-.57A2.45,2.45,0,0,0,893.68,174.88Zm-2.1,30.3a3.15,3.15,0,0,0-1.62-.48,2.12,2.12,0,0,0-1.3.43,2.45,2.45,0,0,0-.82,1.21,8.77,8.77,0,0,0-.36,2.57v6.82h-2.21v-13h2v2a5.43,5.43,0,0,1,1.41-1.83,2.48,2.48,0,0,1,1.41-.44,4.33,4.33,0,0,1,2.27.71Zm11,10.55a5,5,0,0,1-.44-1.61,7.83,7.83,0,0,1-2.36,1.47,6.68,6.68,0,0,1-2.43.43,4.69,4.69,0,0,1-3.29-1.05,3.44,3.44,0,0,1-1.16-2.67,3.65,3.65,0,0,1,1.58-3,5.24,5.24,0,0,1,1.59-.72,17.15,17.15,0,0,1,2-.33,20.23,20.23,0,0,0,3.93-.76c0-.3,0-.5,0-.58a2.46,2.46,0,0,0-.62-1.9,3.75,3.75,0,0,0-2.52-.74,3.91,3.91,0,0,0-2.29.54,3.35,3.35,0,0,0-1.1,1.93l-2.16-.29a5.38,5.38,0,0,1,1-2.24,4.26,4.26,0,0,1,2-1.31,8.58,8.58,0,0,1,2.95-.46,7.85,7.85,0,0,1,2.71.39,3.11,3.11,0,0,1,2.22,2.49,12.83,12.83,0,0,1,.11,2v2.95a32.22,32.22,0,0,0,.14,3.89,4.8,4.8,0,0,0,.56,1.56Zm15.52,0h-2.05v-1.64a4,4,0,0,1-3.64,1.93,5,5,0,0,1-2.86-.86,5.66,5.66,0,0,1-2-2.39,8.26,8.26,0,0,1-.72-3.54,9.29,9.29,0,0,1,.65-3.53,5.05,5.05,0,0,1,1.95-2.43,5.16,5.16,0,0,1,2.9-.85,4.35,4.35,0,0,1,2.1.5,4.48,4.48,0,0,1,1.5,1.29v-6.45h2.19Zm14.72-5.95h-9.71a5,5,0,0,0,1.21,3.29,3.62,3.62,0,0,0,2.72,1.14,3.38,3.38,0,0,0,2.08-.64,4.25,4.25,0,0,0,1.36-2l2.27.28a5.59,5.59,0,0,1-2,3.1A6.07,6.07,0,0,1,927,216a5.94,5.94,0,0,1-4.53-1.76,6.88,6.88,0,0,1-1.67-4.93,7.23,7.23,0,0,1,1.69-5.1,5.76,5.76,0,0,1,4.39-1.81,5.53,5.53,0,0,1,4.26,1.78,7,7,0,0,1,1.66,5C932.83,209.33,932.82,209.52,932.82,209.78Zm-.7-24.17a4.54,4.54,0,0,1-.44-1.6,8.53,8.53,0,0,1-2.36,1.47,7,7,0,0,1-2.44.43,4.71,4.71,0,0,1-3.29-1,3.45,3.45,0,0,1-1.15-2.68,3.58,3.58,0,0,1,1.57-3,5.51,5.51,0,0,1,1.59-.73,17.15,17.15,0,0,1,2-.33,19.49,19.49,0,0,0,3.93-.76c0-.3,0-.49,0-.57a2.41,2.41,0,0,0-.62-1.9,3.67,3.67,0,0,0-2.51-.75,3.84,3.84,0,0,0-2.3.55,3.34,3.34,0,0,0-1.1,1.93l-2.15-.3a5.43,5.43,0,0,1,1-2.24,4.34,4.34,0,0,1,2-1.31,8.89,8.89,0,0,1,3-.46,7.54,7.54,0,0,1,2.7.4,3.63,3.63,0,0,1,1.54,1,3.58,3.58,0,0,1,.68,1.5,11.83,11.83,0,0,1,.11,2v2.94a32.1,32.1,0,0,0,.14,3.89,5,5,0,0,0,.56,1.56Zm9.69,19.57a3.15,3.15,0,0,0-1.62-.48,2.12,2.12,0,0,0-1.3.43,2.45,2.45,0,0,0-.82,1.21,8.77,8.77,0,0,0-.36,2.57v6.82H935.5v-13h2v2a5.43,5.43,0,0,1,1.41-1.83,2.48,2.48,0,0,1,1.41-.44,4.33,4.33,0,0,1,2.27.71Zm6.6,10.44a22.6,22.6,0,0,1-3.08,5.39h-1.58a22.14,22.14,0,0,0,3.66-11.78,20.22,20.22,0,0,0-.53-4.57,18.71,18.71,0,0,0-1.16-3.53c-.32-.73-1-2-2-3.67h1.58a23.54,23.54,0,0,1,3.4,6.17,16.83,16.83,0,0,1-.32,12Zm7.64-30h-2.21v-5.24a12.83,12.83,0,0,1-3.79.63,4.63,4.63,0,0,1-2.62-.75,3.8,3.8,0,0,1-1.54-1.84,6.89,6.89,0,0,1-.4-2.41v-3.4h2.2v2.46a10.39,10.39,0,0,0,.19,2.31,2.25,2.25,0,0,0,.92,1.25,2.92,2.92,0,0,0,1.81.53,10.76,10.76,0,0,0,3.23-.66V172.6h2.21Z"/><path class="cls-3" d="M888.76,180.35a2.06,2.06,0,0,0-.87.72,1.94,1.94,0,0,0-.3,1.05,1.88,1.88,0,0,0,.66,1.47,2.9,2.9,0,0,0,2,.59,4.6,4.6,0,0,0,2.27-.56,3.43,3.43,0,0,0,1.45-1.52,5.3,5.3,0,0,0,.36-2.21v-.81a15.54,15.54,0,0,1-3.6.83A8.58,8.58,0,0,0,888.76,180.35Z"/><text class="cls-11" transform="translate(395.06 270.05) rotate(-22.62)">Үр дүн</text><text class="cls-12" transform="matrix(0.82, -0.57, 0.57, 0.82, 291.02, 216.58)"><tspan class="cls-13">э</tspan><tspan class="cls-14" x="4.41" y="0">х </tspan><tspan class="cls-15" x="11.73" y="0">к</tspan><tspan class="cls-16" x="15.95" y="0">о</tspan><tspan class="cls-17" x="20.98" y="0">д </tspan><tspan class="cls-17"><tspan x="0" y="11.29">о</tspan><tspan class="cls-18" x="5.23" y="11.29">р</tspan><tspan class="cls-14" x="10.36" y="11.29">у</tspan><tspan class="cls-19" x="15.07" y="11.29">у</tspan><tspan x="19.57" y="11.29">лах</tspan></tspan></text><line x1="351.28" y1="113.21" x2="823.76" y2="113.21"/><line class="cls-5" x1="357.25" y1="113.21" x2="817.79" y2="113.21"/><polygon class="cls-6" points="360.05 116.91 358.48 113.21 360.05 109.5 351.28 113.21 360.05 116.91"/><polygon class="cls-6" points="814.98 116.91 816.56 113.21 814.98 109.5 823.76 113.21 814.98 116.91"/><text class="cls-20" transform="translate(628.68 168.68)">• нэ<tspan class="cls-21" x="26.99" y="0">в</tspan><tspan class="cls-22" x="34.71" y="0">т</tspan><tspan class="cls-23" x="42.46" y="0">р</tspan><tspan class="cls-24" x="51.52" y="0">э</tspan><tspan x="58.25" y="0">х</tspan><tspan x="0" y="20.7">• хичэ</tspan><tspan class="cls-25" x="44.3" y="20.7">э</tspan><tspan x="51.39" y="20.7">лийн жаг</tspan><tspan class="cls-26" x="118.67" y="20.7">с</tspan><tspan x="126.54" y="20.7">а</tspan><tspan class="cls-27" x="134.2" y="20.7">а</tspan><tspan class="cls-28" x="142.01" y="20.7">лт</tspan><tspan x="0" y="41.41">• лабор</tspan><tspan class="cls-29" x="52.65" y="41.41">а</tspan><tspan class="cls-30" x="59.87" y="41.41">т</tspan><tspan x="67.18" y="41.41">орийн жаг</tspan><tspan class="cls-22" x="143.1" y="41.41">с</tspan><tspan x="150.97" y="41.41">а</tspan><tspan class="cls-31" x="158.63" y="41.41">а</tspan><tspan x="166.44" y="41.41">лт</tspan><tspan x="0" y="62.11">• б</tspan><tspan class="cls-32" x="19.13" y="62.11">о</tspan><tspan class="cls-33" x="27.26" y="62.11">длогын жаг</tspan><tspan class="cls-22" x="112.15" y="62.11">с</tspan><tspan class="cls-33" x="120.02" y="62.11">а</tspan><tspan class="cls-34" x="127.68" y="62.11">а</tspan><tspan x="135.49" y="62.11">лт</tspan></text><path class="cls-35" d="M458.77,200.85,547.44,202a21.74,21.74,0,0,1,21.83,21.62l.55,97.81A21.18,21.18,0,0,0,591,342.51l323.64.74V328"/><polygon points="918.3 330.84 914.59 329.27 910.89 330.84 914.59 322.06 918.3 330.84"/><path class="cls-36" d="M946.71,322.06v27.56A28.37,28.37,0,0,1,918.34,378h-370a19.21,19.21,0,0,1-19.21-19.21V244.71A23.7,23.7,0,0,0,505.42,221H464.74"/><polygon class="cls-6" points="467.55 217.31 465.97 221.01 467.55 224.71 458.77 221.01 467.55 217.31"/><text class="cls-20" transform="translate(707.42 356.61)">о<tspan class="cls-37" x="8.63" y="0">р</tspan><tspan x="17.03" y="0">у</tspan><tspan class="cls-38" x="25.65" y="0">у</tspan><tspan x="33.52" y="0">лах</tspan></text><text class="cls-20" transform="translate(59.59 119.94)">б<tspan class="cls-32" x="8.78" y="0">о</tspan><tspan class="cls-33" x="16.91" y="0">дло</tspan><tspan class="cls-39" x="42.92" y="0">г</tspan><tspan class="cls-40" x="49.57" y="0">о</tspan></text><text class="cls-41" transform="translate(1103.59 200.94)">нэ<tspan class="cls-42" x="12.78" y="0">в</tspan><tspan class="cls-43" x="18.71" y="0">т</tspan><tspan class="cls-44" x="24.66" y="0">р</tspan><tspan class="cls-45" x="31.62" y="0">э</tspan><tspan x="36.79" y="0">х / гарах</tspan></text><text class="cls-46" transform="translate(1007.18 308.94)">зас<tspan class="cls-47" x="14.44" y="0">в</tspan><tspan x="19.6" y="0">а</tspan><tspan class="cls-47" x="24.6" y="0">р</tspan><tspan class="cls-48" x="30.07" y="0">лах / н</tspan><tspan class="cls-49" x="61.09" y="0">э</tspan><tspan class="cls-50" x="65.82" y="0">м</tspan><tspan class="cls-51" x="73.08" y="0">э</tspan><tspan x="77.47" y="0">х / устгах</tspan><tspan x="0" y="13.5" xml:space="preserve">              testcases</tspan></text><text class="cls-52" transform="translate(1058.59 245.94)">б<tspan class="cls-53" x="4.71" y="0">о</tspan><tspan class="cls-54" x="9.07" y="0">дло</tspan><tspan class="cls-55" x="23.02" y="0">г</tspan><tspan x="26.59" y="0">о</tspan><tspan x="0" y="11.1">үз</tspan><tspan class="cls-56" x="8.28" y="11.1">э</tspan><tspan x="11.89" y="11.1">х</tspan></text><text class="cls-57" transform="translate(19.92 195.28)">Б<tspan class="cls-33" x="9.68" y="0">АГШ</tspan></text><text class="cls-20" transform="translate(0 357.28)">ОЮУ<tspan class="cls-58" x="42.41" y="0">Т</tspan><tspan class="cls-33" x="52.09" y="0">АН</tspan></text><text class="cls-20" transform="translate(86.59 146.94)">о<tspan class="cls-37" x="8.63" y="0">р</tspan><tspan x="17.03" y="0">у</tspan><tspan class="cls-38" x="25.65" y="0">у</tspan><tspan x="33.52" y="0">лах</tspan></text><text class="cls-20" transform="translate(801.64 396.58)"><tspan class="cls-37">х</tspan><tspan x="8.4" y="0">а</tspan><tspan class="cls-37" x="16.06" y="0">р</tspan><tspan x="24.46" y="0">уилах</tspan></text><circle class="cls-5" cx="44.68" cy="139.78" r="6.16"/><polyline class="cls-5" points="44.68 145.95 44.68 163.94 55.68 173.94"/><line class="cls-5" x1="33.47" y1="173.94" x2="44.68" y2="164.23"/><line class="cls-5" x1="29.77" y1="152.98" x2="59.59" y2="152.98"/><text class="cls-57" transform="translate(1132.83 357.99)">Б<tspan class="cls-33" x="9.68" y="0">АГШ</tspan></text><circle class="cls-5" cx="1157.59" cy="302.49" r="6.16"/><polyline class="cls-5" points="1157.59 308.66 1157.59 326.65 1168.6 336.65"/><line class="cls-5" x1="1146.38" y1="336.65" x2="1157.59" y2="326.94"/><line class="cls-5" x1="1142.68" y1="315.69" x2="1172.51" y2="315.69"/><path class="cls-5" d="M59.59,136.85c35.2-14,115.56-10.07,138-8.63"/><polygon class="cls-6" points="194.61 131.79 196.4 128.19 195.06 124.4 203.59 128.64 194.61 131.79"/><text class="cls-20" transform="translate(53.42 281.94)">б<tspan class="cls-32" x="8.78" y="0">о</tspan><tspan class="cls-33" x="16.91" y="0">длогын</tspan></text><text class="cls-20" transform="translate(80.42 308.94)"><tspan class="cls-59">к</tspan><tspan class="cls-32" x="7.51" y="0">о</tspan><tspan x="15.64" y="0">д я</tspan><tspan class="cls-60" x="36.66" y="0">в</tspan><tspan x="44.22" y="0">у</tspan><tspan class="cls-38" x="52.85" y="0">у</tspan><tspan x="60.72" y="0">лах</tspan></text><circle class="cls-5" cx="38.51" cy="301.78" r="6.16"/><polyline class="cls-5" points="38.51 307.95 38.51 325.94 49.51 335.94"/><line class="cls-5" x1="27.29" y1="335.94" x2="38.51" y2="326.23"/><line class="cls-5" x1="23.59" y1="314.98" x2="53.42" y2="314.98"/><path class="cls-5" d="M53.42,298.85C88.61,284.8,169,288.78,191.47,290.22"/><polygon class="cls-6" points="188.43 293.8 190.22 290.19 188.88 286.4 197.42 290.64 188.43 293.8"/><path class="cls-1" d="M1001.53,156.62c95.57,13.34,156.06,134.32,156.06,134.32L1000.43,177.43"/><polygon points="1003.83 160.73 1002.74 156.86 1004.77 153.38 995.59 155.94 1003.83 160.73"/><polygon points="1004.88 176.07 1001.44 178.16 1000.54 182.08 995.59 173.94 1004.88 176.07"/><path class="cls-1" d="M1157.59,290.94s-127.26-8.49-159.37-66.64"/><polygon points="1002.84 225.13 998.82 225.38 996.21 228.44 995.59 218.94 1002.84 225.13"/></g></g></svg>