<svg xmlns="http://www.w3.org/2000/svg" viewBox="0 0 1107.63 827.49"><defs><style>.cls-1,.cls-9{fill:none;stroke-miterlimit:10;}.cls-1{stroke:#000;}.cls-2{font-size:25.1px;font-family:TimesNewRomanPS-ItalicMT, Times New Roman;font-style:italic;}.cls-3{fill:#14b5d9;}.cls-11,.cls-4{font-size:28px;}.cls-4{fill:#fff;}.cls-11,.cls-32,.cls-33,.cls-4{font-family:MyriadPro-Regular, Myriad Pro;}.cls-5{fill:#81d929;}.cls-6{letter-spacing:-0.01em;}.cls-7{fill:#f26dab;}.cls-8{letter-spacing:-0.01em;}.cls-9{stroke:#151614;stroke-width:2px;}.cls-10{fill:#151614;}.cls-12{letter-spacing:-0.01em;}.cls-13{letter-spacing:-0.01em;}.cls-14{letter-spacing:1.07em;}.cls-15{letter-spacing:-0.06em;}.cls-16{letter-spacing:0em;}.cls-17{letter-spacing:0.01em;}.cls-18{letter-spacing:0.02em;}.cls-19{letter-spacing:-0.09em;}.cls-20{letter-spacing:-0.03em;}.cls-21{letter-spacing:-0.03em;}.cls-22{letter-spacing:-0.09em;}.cls-23{letter-spacing:0em;}.cls-24{letter-spacing:-0.02em;}.cls-25{letter-spacing:-0.02em;}.cls-26{letter-spacing:-0.01em;}.cls-27{letter-spacing:0em;}.cls-28{letter-spacing:0.01em;}.cls-29{letter-spacing:0em;}.cls-30{letter-spacing:-0.01em;}.cls-31{fill:#14c5d9;}.cls-32{font-size:104px;}.cls-32,.cls-33{fill:#ccc;}.cls-33{font-size:166px;}</style></defs><title>Asset 2</title><g id="Layer_2" data-name="Layer 2"><g id="Layer_1-2" data-name="Layer 1"><path class="cls-1" d="M259.08,81.4a14.23,14.23,0,0,1,11.35-14.75c18.25-3.74,51-7.07,69.5-6.45,23,.77,79.86-3.12,109.82-6.61a221.82,221.82,0,0,1,43.34-.82c22.78,1.8,55.26,6.16,75.57,16.74,15.76,8.2,19.28,65.29,18.53,124.62-.86,68.37-7.39,139.72-7.39,142.63,0,23.51-105.3,27.81-193.77,23.47-62.1-3-115.91-10.33-119.19-18.22-4-9.56-5-77.18-5.68-142.66C260.65,150.53,260.31,102.9,259.08,81.4Z"/><text class="cls-2" transform="translate(369.97 20.86)">Шалгагч</text><rect class="cls-3" x="281.87" y="143.8" width="243.73" height="60.02"/><text class="cls-4" transform="translate(292.17 182.03)">_pop_submission()</text><rect class="cls-5" x="281.87" y="214.78" width="243.73" height="60.02"/><text class="cls-4" transform="translate(299.81 253)">_push_<tspan class="cls-6" x="85.99" y="0">r</tspan><tspan x="94.86" y="0">esponse()</tspan></text><rect class="cls-7" x="745.04" y="314.98" width="362.59" height="61.5"/><text class="cls-4" transform="translate(770.19 353.95)">_<tspan class="cls-6" x="14" y="0">r</tspan><tspan x="22.88" y="0">esponse_</tspan><tspan class="cls-8" x="133.95" y="0">f</tspan><tspan x="141.76" y="0">or_submission()</tspan></text><line x1="932.5" y1="524.24" x2="932.5" y2="473.39"/><line class="cls-9" x1="932.5" y1="512.31" x2="932.5" y2="473.39"/><polygon class="cls-10" points="939.91 506.69 932.5 509.83 925.09 506.69 932.5 524.25 939.91 506.69"/><text class="cls-11" transform="translate(795.55 239.67)"><tspan class="cls-12">x</tspan><tspan x="12.54" y="0">queue_header</tspan><tspan class="cls-12" x="0" y="33.6">x</tspan><tspan x="12.54" y="33.6">queue_body : </tspan><tspan class="cls-13" x="179.17" y="33.6">c</tspan><tspan x="191.54" y="33.6">ode</tspan></text><text class="cls-11" transform="translate(519.48 652.49)"><tspan class="cls-12">x</tspan><tspan x="12.54" y="0">queue_header</tspan><tspan class="cls-12" x="0" y="33.6">x</tspan><tspan x="12.54" y="33.6">queue_body : {</tspan><tspan class="cls-14" x="0" y="67.2">	</tspan><tspan class="cls-15" x="36" y="67.2">“</tspan><tspan class="cls-13" x="44.09" y="67.2">c</tspan><tspan x="56.47" y="67.2">o</tspan><tspan class="cls-16" x="71.84" y="67.2">r</tspan><tspan class="cls-6" x="81.11" y="67.2">r</tspan><tspan x="89.99" y="67.2">e</tspan><tspan class="cls-17" x="104.01" y="67.2">c</tspan><tspan class="cls-18" x="116.92" y="67.2">t</tspan><tspan class="cls-19" x="126.78" y="67.2">”</tspan><tspan x="134.28" y="67.2" xml:space="preserve"> : true / false</tspan><tspan class="cls-14" x="0" y="100.8">	</tspan><tspan class="cls-20" x="36" y="100.8">“</tspan><tspan x="44.99" y="100.8">s</tspan><tspan class="cls-13" x="56.08" y="100.8">c</tspan><tspan x="68.45" y="100.8">o</tspan><tspan class="cls-6" x="83.83" y="100.8">r</tspan><tspan class="cls-21" x="92.7" y="100.8">e</tspan><tspan class="cls-22" x="106.03" y="100.8">”</tspan><tspan x="113.53" y="100.8" xml:space="preserve"> :  flo</tspan><tspan class="cls-23" x="167.15" y="100.8">a</tspan><tspan x="180.54" y="100.8">t</tspan><tspan class="cls-14" x="0" y="134.4">	</tspan><tspan class="cls-24" x="36" y="134.4">“</tspan><tspan x="45.27" y="134.4">ms</tspan><tspan class="cls-25" x="79.71" y="134.4">g</tspan><tspan class="cls-19" x="94.74" y="134.4">”</tspan><tspan x="102.25" y="134.4" xml:space="preserve"> : st</tspan><tspan class="cls-16" x="140.27" y="134.4">r</tspan><tspan x="149.54" y="134.4">ing</tspan><tspan x="0" y="168">}</tspan></text><text class="cls-11" transform="translate(810.44 427.55)">* <tspan class="cls-8" x="17.56" y="0">э</tspan><tspan x="30.18" y="0">х </tspan><tspan class="cls-13" x="49.08" y="0">к</tspan><tspan class="cls-26" x="62.33" y="0">о</tspan><tspan class="cls-27" x="77.5" y="0">д</tspan><tspan x="0" y="33.6">* б</tspan><tspan class="cls-26" x="32.34" y="33.6">о</tspan><tspan class="cls-28" x="47.52" y="33.6">д</tspan><tspan x="62.61" y="33.6">ло</tspan><tspan class="cls-26" x="92.17" y="33.6">г</tspan><tspan x="102.76" y="33.6">ын </tspan><tspan class="cls-29" x="142.6" y="33.6">д</tspan><tspan class="cls-27" x="157.36" y="33.6">у</tspan><tspan class="cls-30" x="170.55" y="33.6">г</tspan><tspan x="180.93" y="33.6">аар</tspan></text><text class="cls-11" transform="translate(131.58 189.76) rotate(-35.06)">poll</text><path class="cls-1" d="M509.23,131s286.32-66.47,324.67,0c24.46,42.4,31.23,61.58,32.93,69.91"/><polygon points="862.8 198.42 866.61 199.72 870.18 197.88 867.13 206.9 862.8 198.42"/><rect class="cls-31" x="805.55" y="532.35" width="241.56" height="39.62"/><text class="cls-4" transform="translate(885.53 560.38)">submit()</text><text class="cls-32" transform="translate(1040.68 274.54)">}</text><text class="cls-33" transform="translate(422.73 773)">[</text><path class="cls-1" d="M926.33,601.73c-11.63,29.81-89.61,74.86-110.66,86.6"/><polygon points="816.27 683.67 816.72 687.67 819.91 690.12 810.44 691.2 816.27 683.67"/><path class="cls-1" d="M405.84,767.52S274.2,724.07,266.53,628.21c-7.36-92.06,49.39-292.56,89.34-327.56"/><polygon points="355.87 305.38 354.93 301.46 351.46 299.42 360.73 297.18 355.87 305.38"/><path class="cls-31" d="M56.67,269.94c-2.16,0-3.11,2-3.28,3.47h6.25C59.66,272.05,59.08,269.94,56.67,269.94Z"/><path class="cls-31" d="M33.81,272.17c0-3.28-1.7-6.65-5.17-6.65s-5.32,3.3-5.3,6.85,1.9,6.61,5.2,6.61S33.81,275.91,33.81,272.17Z"/><path class="cls-31" d="M82.23,269.94c-2.16,0-3.11,2-3.28,3.47h6.24C85.22,272.05,84.64,269.94,82.23,269.94Z"/><path class="cls-31" d="M0,250.08v46.45H95.18V250.08Zm17.85,30.35-2.09-3.62c-.85-1.38-1.38-2.28-1.89-3.23h0c-.46.95-.92,1.82-1.77,3.26l-2,3.59H7.65l5-8.28-4.81-8.09H10.3l2.16,3.84c.61,1.07,1.07,1.89,1.51,2.77H14c.46-1,.87-1.73,1.48-2.77l2.24-3.84h2.43l-5,8,5.1,8.4Zm17.71,2.41c-2.21-.58-4.37-1.24-6.26-1.9a3.23,3.23,0,0,0-1-.24c-3.89-.15-7.22-3-7.22-8.28s3.21-8.63,7.63-8.63,7.34,3.45,7.34,8.29c0,4.2-1.94,6.9-4.67,7.84v.1c1.63.41,3.41.8,4.79,1Zm11.27-2.41-.12-1.92h0a4.43,4.43,0,0,1-3.89,2.19c-1.85,0-4.06-1-4.06-5.15v-6.87h2.14v6.51c0,2.23.68,3.74,2.62,3.74a3,3,0,0,0,3-3v-7.21h2.14v8.55c0,1.21,0,2.28.1,3.2Zm14.8-5.49H53.37a3.76,3.76,0,0,0,4,4.08,7.77,7.77,0,0,0,3.26-.6L61,280a9.5,9.5,0,0,1-3.91.73c-3.62,0-5.78-2.38-5.78-5.93s2.09-6.34,5.51-6.34c3.84,0,4.86,3.38,4.86,5.54A9.22,9.22,0,0,1,61.63,274.94Zm10.76,5.49-.12-1.92h0a4.43,4.43,0,0,1-3.89,2.19c-1.84,0-4-1-4-5.15v-6.87h2.14v6.51c0,2.23.68,3.74,2.62,3.74a3,3,0,0,0,3-3v-7.21h2.14v8.55c0,1.21,0,2.28.1,3.2Zm14.8-5.49H78.93A3.76,3.76,0,0,0,83,279a7.72,7.72,0,0,0,3.25-.6l.37,1.53a9.5,9.5,0,0,1-3.91.73c-3.62,0-5.78-2.38-5.78-5.93s2.08-6.34,5.51-6.34c3.84,0,4.86,3.38,4.86,5.54A9.22,9.22,0,0,1,87.19,274.94Z"/><path class="cls-1" d="M111.86,255.33C218.7,144,270,124.09,286.25,120.61"/><polygon points="116.51 255.95 112.77 254.49 111.21 250.78 107.73 259.65 116.51 255.95"/><polygon points="284 124.78 285.04 120.89 282.96 117.45 292.17 119.89 284 124.78"/><path class="cls-1" d="M281.87,253c-100.75,65.71-176.1,60.39-197.06,57.16"/><polygon points="88.25 306.97 86.04 310.33 86.93 314.26 78.95 309.05 88.25 306.97"/></g></g></svg>